<svg width="714" height="344" viewBox="0 0 714 344" fill="none" xmlns="http://www.w3.org/2000/svg">
<path d="M695.989 342.427H38.6521C38.6521 342.427 37.3854 190.133 78.9962 141.973C120.607 93.8137 214.368 216.163 250.823 183.622C287.278 151.081 292.472 63.8691 361.456 54.7616C430.44 45.6541 440.865 183.622 482.514 194.098C524.162 204.573 567.103 123.809 610.069 123.809C694.684 123.708 695.989 342.427 695.989 342.427Z" fill="url(#paint0_linear_124_45)"/>
<path d="M700.029 254.215C700.029 254.215 695.761 237.748 701.169 237.748C707.44 237.875 705.286 246.159 700.029 254.215Z" fill="url(#paint1_linear_124_45)"/>
<path d="M697.685 262.208C697.685 262.208 682.384 254.76 685.943 250.681C690.085 245.969 694.949 252.974 697.685 262.208Z" fill="url(#paint2_linear_124_45)"/>
<path d="M698.028 262.449C698.028 262.449 715.014 261.423 713.228 256.293C711.265 250.352 704.083 255.026 698.028 262.449Z" fill="url(#paint3_linear_124_45)"/>
<path d="M693.911 277.902C693.911 277.902 714.849 276.636 712.696 270.302C710.213 263.006 701.372 268.681 693.911 277.902Z" fill="url(#paint4_linear_124_45)"/>
<path d="M689.554 290.873C689.554 290.873 712.988 294.965 712.278 287.441C711.467 278.713 700.207 282.653 689.554 290.873Z" fill="url(#paint5_linear_124_45)"/>
<path d="M683.157 305.694C683.157 305.694 707.427 309.925 706.692 302.135C705.844 293.141 694.19 297.233 683.157 305.694Z" fill="url(#paint6_linear_124_45)"/>
<path d="M693.772 278.383C693.772 278.383 677.001 265.641 682.372 261.562C688.464 256.837 692.682 266.515 693.772 278.383Z" fill="url(#paint7_linear_124_45)"/>
<path d="M689.541 290.684C689.541 290.684 666.525 277.89 672.377 271.899C679.154 264.957 686.096 276.193 689.541 290.684Z" fill="url(#paint8_linear_124_45)"/>
<path d="M682.954 305.693C682.954 305.693 662.484 294.293 667.69 288.985C673.72 282.753 679.888 292.748 682.954 305.693Z" fill="url(#paint9_linear_124_45)"/>
<path d="M675.367 319.894C675.367 319.894 702.474 324.618 701.651 315.916C700.701 305.821 687.692 310.381 675.367 319.894Z" fill="url(#paint10_linear_124_45)"/>
<path d="M675.139 319.767C675.139 319.767 652.338 307.1 658.089 301.108C664.828 294.218 671.719 305.364 675.139 319.767Z" fill="url(#paint11_linear_124_45)"/>
<path d="M660.218 342.77L659.052 341.845C694.52 297.625 700.106 248.984 700.157 248.502L701.639 248.654C701.588 249.148 695.989 298.207 660.218 342.77Z" fill="url(#paint12_linear_124_45)"/>
<path d="M665.296 304.123C664.029 298.195 660.584 288.188 652.819 289.037C651.704 289.247 650.654 289.714 649.752 290.403C648.85 291.091 648.122 291.981 647.626 293.002C645.092 297.562 643.547 311.09 636.073 310.735C629.043 310.355 634.376 301.982 636.491 299.462C639.177 296.282 642.331 293.267 642.052 288.859C641.609 282.057 635.44 277.181 635.592 270.201C635.744 262.601 645.029 260.296 648.702 254.57C663.117 232.162 610.423 207.107 607.294 235.481C606.433 243.271 611.436 250.339 611.943 257.977C612.538 266.844 606.496 268.934 600.935 274.368C596.451 278.739 597.135 283.856 596.401 289.455C595.793 293.914 589.978 302.831 587.749 293.698C585.52 284.565 595.653 280.892 596.502 273.064C597.452 264.298 583.582 258.902 577.261 263.602C571.649 267.794 571.725 276.332 572.587 282.602C573.132 286.529 583.873 302.502 574.208 302.109C569.382 301.906 565.24 303.832 566.95 309.507C568.597 314.928 574.322 316.448 578.616 319.146C581.618 321.033 586.938 325.074 582.898 328.684L583.594 328.064C582.838 329.013 582.173 330.031 581.606 331.104C580.586 332.923 580.008 334.957 579.92 337.041C579.832 339.125 580.236 341.2 581.099 343.099H596.565C597.99 338.53 598.286 333.684 597.427 328.976C596.16 322.832 593.133 317.221 589.826 311.901L588.56 309.899L587.293 307.771L586.685 306.707L586.166 305.592C585.836 304.845 585.482 304.098 585.165 303.338C581.661 294.057 581.924 283.774 585.9 274.685C584.959 277.745 584.377 280.903 584.164 284.097C583.906 287.251 583.991 290.423 584.418 293.559C584.887 296.658 585.711 299.693 586.875 302.603C588.137 305.464 589.659 308.203 591.423 310.786C593.14 313.524 594.684 316.367 596.046 319.298C597.411 322.29 598.369 325.451 598.896 328.697C599.392 331.968 599.263 335.303 598.516 338.526C598.134 340.08 597.652 341.608 597.072 343.099H614.198L613.818 342.428C612.492 340.51 611.403 338.438 610.575 336.259C609.086 331.773 608.462 327.044 608.738 322.325C609.156 312.889 611.943 303.87 614.907 295.13L619.518 282.108C620.265 279.942 620.962 277.763 621.544 275.572C622.127 273.38 622.57 271.126 622.938 268.871C623.637 264.329 623.938 259.735 623.837 255.14C623.76 250.519 623.43 245.906 622.849 241.32C623.806 245.865 624.453 250.47 624.787 255.102C625.08 259.769 624.962 264.453 624.433 269.099C623.846 273.743 622.785 278.314 621.266 282.741C619.809 287.149 618.213 291.469 616.744 295.826C615.274 300.184 613.83 304.528 612.665 308.949C611.46 313.361 610.646 317.871 610.233 322.427C609.801 326.963 610.231 331.54 611.5 335.917C612.16 338.088 613.087 340.169 614.261 342.111C614.438 342.402 614.641 342.681 614.831 342.96H642.825C643.864 341.271 644.835 339.552 645.738 337.804C647.455 334.476 648.892 331.01 650.032 327.443C651.202 323.873 652.075 320.212 652.642 316.499C653.009 314.649 653.136 312.762 653.351 310.862C653.566 308.962 653.554 307.062 653.744 305.136C653.984 307.036 654.263 308.936 654.314 310.887C654.39 312.826 654.339 314.769 654.162 316.701C653.854 320.578 653.088 324.405 651.882 328.102C650.698 331.786 649.078 335.316 647.056 338.615C646.132 340.121 645.122 341.572 644.028 342.96H651.54C662.585 333.903 668.729 319.627 665.296 304.123Z" fill="url(#paint13_linear_124_45)"/>
<path d="M13.3303 251.023C13.3303 251.023 17.599 234.556 12.1903 234.619C5.92014 234.759 8.07351 242.954 13.3303 251.023Z" fill="url(#paint14_linear_124_45)"/>
<path d="M15.6741 259.028C15.6741 259.028 30.9757 251.568 27.4163 247.501C23.2742 242.789 18.4735 249.794 15.6741 259.028Z" fill="url(#paint15_linear_124_45)"/>
<path d="M15.3319 259.269C15.3319 259.269 -1.65445 258.231 0.131582 253.113C2.09495 247.172 9.2771 251.783 15.3319 259.269Z" fill="url(#paint16_linear_124_45)"/>
<path d="M19.4487 274.723C19.4487 274.723 -1.48968 273.456 0.663698 267.123C3.14641 259.814 11.9879 265.501 19.4487 274.723Z" fill="url(#paint17_linear_124_45)"/>
<path d="M23.8057 287.694C23.8057 287.694 0.371868 291.785 1.08121 284.261C1.8919 275.533 13.1528 279.473 23.8057 287.694Z" fill="url(#paint18_linear_124_45)"/>
<path d="M30.2026 302.565C30.2026 302.565 5.93279 306.795 6.66747 298.993C7.51616 289.961 19.1697 294.053 30.2026 302.565Z" fill="url(#paint19_linear_124_45)"/>
<path d="M19.5881 275.204C19.5881 275.204 36.3591 262.461 31.0517 258.382C24.8956 253.657 20.6775 263.335 19.5881 275.204Z" fill="url(#paint20_linear_124_45)"/>
<path d="M23.8186 287.504C23.8186 287.504 46.8344 274.698 40.9823 268.719C34.2055 261.777 27.264 273.013 23.8186 287.504Z" fill="url(#paint21_linear_124_45)"/>
<path d="M30.4055 302.451C30.4055 302.451 50.8753 291.05 45.6058 285.743C39.6397 279.574 33.4709 289.556 30.4055 302.451Z" fill="url(#paint22_linear_124_45)"/>
<path d="M37.9934 316.714C37.9934 316.714 10.8862 321.439 11.7095 312.724C12.6596 302.641 25.6685 307.201 37.9934 316.714Z" fill="url(#paint23_linear_124_45)"/>
<path d="M38.2209 316.575C38.2209 316.575 61.0214 303.908 55.2706 297.929C48.5318 291.038 41.641 302.185 38.2209 316.575Z" fill="url(#paint24_linear_124_45)"/>
<path d="M53.1427 339.59L54.3081 338.653C18.8407 294.446 13.2546 245.805 13.204 245.323L11.7219 245.475C11.7726 245.969 17.3714 295.028 53.1427 339.59Z" fill="url(#paint25_linear_124_45)"/>
<path d="M88.6987 248.325C87.85 244.918 86.026 240.282 81.3012 241.89C71.6237 245.197 65.0369 293.382 65.2269 342.124H87.5207C88.1287 342.124 91.8781 299.272 92.1061 295.383C93.0435 279.663 92.4988 263.678 88.6987 248.325ZM81.6179 293.698C80.7312 307.632 79.6292 321.439 77.6531 335.246C77.3618 321.312 77.9445 307.378 78.7425 293.521C79.5405 279.663 80.7312 265.78 82.7073 251.961C82.9859 265.907 82.4032 279.815 81.6179 293.698Z" fill="url(#paint26_linear_124_45)"/>
<path d="M52.0657 273.064C45.9729 271.974 50.2543 327.025 52.0657 342.124H69.4827C68.7987 330.622 64.7706 275.357 52.0657 273.064ZM56.8285 308.873C56.2204 304.44 55.6504 300.006 55.2451 295.548C54.8397 291.089 54.4977 286.605 54.4471 282.095C55.7138 286.44 56.6131 290.823 57.4618 295.231C58.3105 299.639 59.0072 304.098 59.6658 308.468C60.3245 312.838 60.8565 317.335 61.2619 321.806C61.6672 326.278 62.0092 330.673 62.0472 335.246C60.7805 330.901 59.8812 326.518 59.0452 322.123C58.2091 317.727 57.4871 313.294 56.8285 308.873Z" fill="url(#paint27_linear_124_45)"/>
<path d="M116.3 276.622C106.901 270.39 87.5329 325.58 81.4275 342.123H105.102C107.04 339.374 124.596 282.133 116.3 276.622ZM109.966 297.726C108.953 302.045 107.775 306.326 106.559 310.582C105.343 314.839 104.025 319.082 102.556 323.249C101.087 327.417 99.5919 331.61 97.7805 335.701C98.4392 331.28 99.3765 326.935 100.403 322.616C101.429 318.297 102.594 314.028 103.81 309.759C105.026 305.49 106.343 301.272 107.813 297.092C109.282 292.912 110.789 288.719 112.588 284.641C111.942 289.074 111.005 293.419 109.979 297.726H109.966Z" fill="url(#paint28_linear_124_45)"/>
<path opacity="0.1" d="M436.38 322.502C458.344 322.502 496.383 330.47 499.195 338.843C502.007 347.216 452.087 339.121 439.952 339.894C427.817 340.667 389.525 347.355 382.394 338.843C375.262 330.331 436.38 322.502 436.38 322.502Z" fill="#00052A"/>
<path d="M446.806 58.2959C460.803 57.6119 485.706 68.5561 495.801 59.6513C505.897 50.7464 493.331 55.3825 492.634 41.0689C491.938 26.7553 478.942 41.2969 478.22 26.5273C477.498 11.7577 462.424 23.3985 461.664 7.91958C460.904 -7.55939 444.171 4.42352 444.171 4.42352L446.806 58.2959Z" fill="#00052A"/>
<path d="M446.805 58.2961C432.871 58.9674 409.082 72.2297 398.164 64.4142C387.245 56.5987 400.216 59.9301 399.519 45.6165C398.822 31.3029 413.161 44.5145 412.452 29.7448C411.743 14.9752 427.867 25.0834 427.107 9.60444C426.347 -5.87453 444.17 4.42367 444.17 4.42367L446.805 58.2961Z" fill="#00052A"/>
<path d="M435.658 54.7113C433.847 54.0527 429.642 54.04 423.739 63.6922C415.847 76.5618 408.159 89.8747 408.159 89.8747L393.934 77.3851L392.667 75.9918C390.4 82.1985 387.828 84.0099 387.828 84.0099C387.828 84.0099 398.582 103.821 405.98 108.571C413.377 113.321 417.165 106.76 420.534 100.971C423.904 95.1821 439.167 67.8849 439.167 67.8849C439.167 67.8849 443.588 57.6247 435.658 54.7113Z" fill="#E55480"/>
<path d="M392.654 75.9915L390.336 73.4582C390.336 73.4582 385.675 69.1134 382.483 67.7327C379.29 66.352 368.625 65.098 368.663 67.4414C368.701 69.7847 375.224 68.3787 375.402 69.9747C375.579 71.5708 369.689 75.0415 372.982 79.0569C373.981 80.2238 375.233 81.1484 376.641 81.7606C378.05 82.3729 379.58 82.6568 381.115 82.591C382.015 83.3835 383.105 83.9303 384.279 84.1788C385.453 84.4273 386.671 84.3691 387.815 84.0097C387.815 84.0097 390.387 82.1983 392.654 75.9915Z" fill="#FFA86D"/>
<path d="M462.753 283.159C463.197 292.254 463.551 299.461 463.665 301.931C463.919 306.922 462.829 313.775 462.323 319.5C468.137 322.844 475.066 330.179 478.79 331.293C479.883 331.672 481.055 331.763 482.193 331.557C483.332 331.35 484.397 330.854 485.288 330.115C483.388 328.519 481.614 326.974 479.144 325.048C476.37 322.806 474.306 321.109 473.102 319.057C471.519 316.359 471.988 312.559 472.748 306.39C473.508 300.221 474.584 291.886 475.661 282.614L462.753 283.159Z" fill="#FFB87B"/>
<path d="M491.9 335.867C491.216 338.185 488.391 339.793 483.033 337.513C479.385 335.955 473.71 331.547 468.934 331.104C465.831 330.813 463.994 330.8 462.956 329.255C461.917 327.709 461.892 323.871 462.284 319.501C468.098 322.845 475.027 330.179 478.751 331.294C479.844 331.673 481.017 331.764 482.155 331.557C483.293 331.351 484.359 330.854 485.249 330.116L486.225 330.927C489.936 334.005 492.33 334.41 491.9 335.867Z" fill="#030C36"/>
<path d="M465.312 315.092C465.312 315.092 464.349 317.84 465.527 319.335" stroke="#00052A" stroke-linecap="round" stroke-linejoin="round"/>
<path d="M419.356 288.289C417.95 297.283 416.823 304.414 416.443 306.859C415.67 311.799 416.012 318.728 415.911 324.466C409.767 327.177 402.104 333.726 398.316 334.448C397.19 334.708 396.015 334.673 394.905 334.347C393.796 334.021 392.789 333.414 391.983 332.586C394.035 331.205 395.973 329.85 398.633 328.14C401.635 326.214 403.864 324.732 405.283 322.819C407.145 320.286 407.082 316.486 406.981 310.241C406.879 303.996 406.715 295.624 406.626 286.288L419.356 288.289Z" fill="#FFB87B"/>
<path d="M384.763 337.589C385.193 339.97 387.828 341.87 393.363 340.122C397.163 338.969 403.269 335.195 408.057 335.258C411.186 335.258 413.01 335.486 414.201 334.055C415.391 332.623 415.835 328.823 415.911 324.428C409.767 327.138 402.104 333.687 398.316 334.409C397.189 334.67 396.015 334.635 394.905 334.309C393.796 333.983 392.789 333.376 391.983 332.547L390.931 333.257C386.903 335.955 384.547 336.094 384.763 337.589Z" fill="#030C36"/>
<path d="M413.402 319.767C413.402 319.767 414.073 322.604 412.743 323.972" stroke="#00052A" stroke-linecap="round" stroke-linejoin="round"/>
<path d="M425.373 137.223C426.982 127.888 475.521 128.673 475.521 128.673C480.665 158.692 482.753 189.156 481.753 219.596C480.753 247.615 477.13 294.458 477.13 294.458L459.523 295.319C459.523 295.319 458.826 149.117 450.365 150.27C441.903 151.423 423.422 291.633 423.422 291.633L400.217 290.366C400.217 290.366 422.054 156.502 425.373 137.223Z" fill="#A96600"/>
<path d="M424.777 140.694C424.777 140.694 438.419 131.828 475.863 132.271" stroke="#ECEEF7" stroke-miterlimit="10"/>
<path d="M465.704 132.018C465.704 132.018 461.815 152.994 478.371 150.765" stroke="#ECEEF7" stroke-miterlimit="10"/>
<path d="M476.56 150.397C476.56 150.397 479.308 184.94 477.826 216.582C476.889 236.253 474.267 295.116 474.318 294.635" stroke="#ECEEF7" stroke-miterlimit="10"/>
<path d="M436.367 54.8252L428.678 76.6883L425.372 137.261L475.52 128.711L468.44 79.6397L456.989 57.2699L446.386 62.6027L436.367 54.8252Z" fill="#E55480"/>
<path d="M442.599 45.1853C440.436 43.5988 438.652 41.5524 437.375 39.1934C436.098 36.8344 435.36 34.2215 435.215 31.543C434.759 22.4355 436.139 8.97056 446.26 8.47655C456.381 7.98254 457.964 19.6741 458.547 31.619C459.13 43.5639 450.491 44.7546 450.491 44.7546L451.264 56.4842L456.989 57.2188C455.743 59.1261 454.044 60.6948 452.043 61.7846C450.043 62.8744 447.804 63.4513 445.525 63.4636C437.216 63.869 436.367 54.7741 436.367 54.7741L442.473 55.0908L442.599 45.1853Z" fill="#FFA86D"/>
<path d="M442.6 45.1857C442.6 45.1857 444.893 46.4524 450.491 44.8057L450.871 50.5944C450.871 50.5944 445.273 52.7605 442.537 50.3664L442.6 45.1857Z" fill="#F49D6E"/>
<path d="M421.966 156.667C421.966 156.667 437.28 157.668 437.293 136.058" stroke="#ECEEF7" stroke-miterlimit="10"/>
<path d="M425.562 156.718C425.562 156.718 412.895 222.586 411.084 235.253C409.273 247.92 405.371 290.607 405.371 290.607" stroke="#ECEEF7" stroke-miterlimit="10"/>
<path d="M459.662 23.0056C459.662 23.0056 448.161 25.8556 440.788 14.4681L440.535 9.40132C440.535 9.40132 458.243 -6.10297 459.662 23.0056Z" fill="#00052A"/>
<path d="M440.788 14.4681C440.788 14.4681 439.661 23.4743 435.392 23.677C435.392 23.677 433.201 10.9214 440.535 9.38867L440.788 14.4681Z" fill="#00052A"/>
<path d="M443.753 35.7489C443.389 35.7153 443.038 35.597 442.728 35.4035C442.417 35.2099 442.157 34.9465 441.967 34.6343C441.219 33.0762 442.676 31.8095 443.854 30.8342L444.64 30.1248C445.514 29.2635 445.02 27.5915 444.64 26.0334C444.64 25.8308 444.513 25.6281 444.462 25.4254C444.443 25.3564 444.437 25.2842 444.446 25.2131C444.455 25.1419 444.478 25.0732 444.513 25.0109C444.548 24.9485 444.595 24.8937 444.652 24.8496C444.708 24.8056 444.773 24.7731 444.842 24.7541C444.91 24.735 444.982 24.7297 445.052 24.7385C445.122 24.7474 445.19 24.7702 445.251 24.8056C445.313 24.841 445.366 24.8882 445.409 24.9447C445.452 25.0011 445.483 25.0655 445.501 25.1341C445.564 25.3241 445.615 25.5267 445.678 25.7294C446.172 27.4521 446.793 29.5295 445.45 30.8975C445.197 31.1509 444.906 31.4042 444.614 31.6575C443.347 32.7089 442.638 33.4562 442.993 34.1909C443.347 34.9256 444.741 34.8623 445.653 34.7356C445.796 34.7176 445.94 34.7568 446.053 34.8446C446.167 34.9324 446.242 35.0617 446.261 35.2043C446.272 35.2752 446.268 35.3475 446.25 35.4169C446.232 35.4863 446.2 35.5514 446.156 35.6082C446.112 35.665 446.058 35.7123 445.995 35.7474C445.932 35.7825 445.863 35.8045 445.792 35.8123C445.113 35.8871 444.426 35.8658 443.753 35.7489Z" fill="#00052A"/>
<path d="M452.164 28.668C452.151 28.9838 452.044 29.2886 451.858 29.5439C451.672 29.7992 451.414 29.9934 451.117 30.1019C450.82 30.2104 450.498 30.2283 450.19 30.1534C449.883 30.0784 449.606 29.914 449.392 29.6809C449.179 29.4479 449.039 29.1567 448.991 28.8442C448.943 28.5318 448.989 28.2122 449.124 27.9259C449.258 27.6397 449.474 27.3997 449.744 27.2364C450.015 27.0731 450.328 26.9938 450.644 27.0086C450.853 27.0167 451.058 27.0662 451.248 27.1542C451.438 27.2422 451.608 27.3669 451.75 27.5212C451.891 27.6755 452 27.8563 452.071 28.0532C452.142 28.25 452.174 28.4589 452.164 28.668Z" fill="#002441"/>
<path d="M441.396 29.5547C441.386 29.8712 441.281 30.1774 441.096 30.4344C440.912 30.6914 440.654 30.8876 440.358 30.9981C440.061 31.1085 439.738 31.1282 439.43 31.0546C439.122 30.981 438.843 30.8175 438.628 30.5848C438.413 30.3522 438.273 30.0609 438.224 29.748C438.175 29.4352 438.221 29.1149 438.354 28.8279C438.488 28.5409 438.704 28.3002 438.975 28.1364C439.246 27.9726 439.56 27.8931 439.876 27.908C440.295 27.9278 440.689 28.1116 440.974 28.4197C441.258 28.7279 441.41 29.1356 441.396 29.5547Z" fill="#002441"/>
<path d="M449.402 36.3193C448.617 37.1937 447.628 37.8606 446.523 38.2606C445.418 38.6605 444.231 38.7813 443.069 38.6121C443.463 39.2962 444.076 39.828 444.808 40.1221C445.541 40.4161 446.352 40.4553 447.109 40.2334C450.555 39.1567 449.402 36.3193 449.402 36.3193Z" fill="white"/>
<path d="M446.754 23.2218C447.246 22.6941 447.895 22.3388 448.604 22.2084C449.297 22.0614 450.013 22.0614 450.707 22.2084C451.41 22.3207 452.077 22.5938 452.657 23.0064C453.223 23.3793 453.684 23.8891 454 24.4885C454.03 24.5575 454.033 24.6357 454.007 24.7066C453.981 24.7775 453.929 24.8355 453.861 24.8685C453.821 24.8876 453.778 24.8975 453.734 24.8975C453.69 24.8975 453.647 24.8876 453.607 24.8685C453.102 24.5635 452.582 24.2844 452.049 24.0325C451.541 23.8006 451.011 23.6223 450.466 23.5005C449.912 23.3818 449.347 23.3266 448.781 23.3358C448.212 23.3441 447.648 23.4424 447.109 23.6271C447.076 23.641 447.04 23.6478 447.004 23.6468C446.969 23.6459 446.933 23.6374 446.901 23.6219C446.869 23.6063 446.84 23.584 446.817 23.5565C446.794 23.5291 446.777 23.497 446.767 23.4625C446.745 23.4265 446.733 23.3857 446.73 23.3437C446.728 23.3017 446.736 23.2598 446.754 23.2218Z" fill="#00052A"/>
<path d="M437.013 25.8687C436.958 25.4253 437.061 24.9769 437.304 24.602C437.539 24.2398 437.861 23.9433 438.242 23.7407C438.786 23.4556 439.41 23.3577 440.015 23.462C440.205 23.4949 440.392 23.5457 440.573 23.614C440.642 23.6423 440.698 23.6962 440.729 23.7647C440.759 23.8331 440.762 23.9107 440.737 23.9813C440.722 24.0167 440.699 24.0485 440.671 24.0746C440.642 24.1008 440.609 24.1208 440.573 24.1333C440.412 24.1995 440.247 24.2545 440.079 24.298L439.623 24.4373C439.348 24.5249 439.081 24.6351 438.825 24.7667C438.579 24.8888 438.353 25.0468 438.153 25.2354C437.937 25.4341 437.741 25.6549 437.57 25.894C437.519 25.9421 437.451 25.9689 437.38 25.9689C437.31 25.9689 437.242 25.9421 437.19 25.894C437.13 25.9087 437.067 25.8996 437.013 25.8687Z" fill="#00052A"/>
<g style="mix-blend-mode:multiply">
<path d="M438.66 34.6218C438.66 34.6218 438.571 32.6838 439.762 32.8231C441.193 32.9878 439.762 36.8258 439.762 36.8258C439.762 36.8258 435.962 35.9392 436.595 34.5965C437.228 33.2538 438.66 34.6218 438.66 34.6218Z" fill="#FF7796"/>
</g>
<g style="mix-blend-mode:multiply">
<path d="M451.783 32.6078C451.783 32.6078 452.758 30.1504 454.164 30.9991C455.861 32.0124 451.884 35.9645 451.884 35.9645C451.884 35.9645 447.641 32.6964 449.224 31.3917C450.807 30.087 451.783 32.6078 451.783 32.6078Z" fill="#FF7796"/>
</g>
<path d="M408.158 89.8745C408.158 89.8745 411.958 91.5846 411.958 97.1073" stroke="white" stroke-linecap="round" stroke-linejoin="round"/>
<path opacity="0.2" d="M453.379 139.491L498.891 156.515C499.137 156.602 499.406 156.589 499.643 156.481C499.879 156.372 500.064 156.175 500.158 155.932L513.028 121.554C513.11 121.307 513.095 121.038 512.984 120.802C512.873 120.566 512.675 120.382 512.432 120.288L466.933 103.251C466.686 103.168 466.416 103.184 466.18 103.294C465.944 103.405 465.76 103.603 465.666 103.846L460.27 118.223H460.055C459.585 118.07 459.076 118.103 458.63 118.315C458.185 118.527 457.837 118.902 457.661 119.363L457.014 121.111C456.846 121.572 456.861 122.081 457.056 122.531C457.252 122.981 457.614 123.339 458.066 123.53L458.243 123.67L452.796 138.211C452.712 138.459 452.726 138.729 452.834 138.966C452.942 139.204 453.137 139.392 453.379 139.491ZM459.713 119.882L459.599 120.199C459.498 120.161 459.391 120.143 459.283 120.146C459.176 120.15 459.07 120.174 458.972 120.219C458.874 120.264 458.786 120.328 458.713 120.407C458.64 120.486 458.584 120.579 458.547 120.68C458.477 120.884 458.487 121.107 458.577 121.303C458.666 121.498 458.828 121.652 459.029 121.732L458.902 122.048C458.616 121.937 458.384 121.719 458.256 121.44C458.128 121.161 458.115 120.843 458.218 120.554C458.271 120.411 458.352 120.28 458.457 120.169C458.561 120.058 458.686 119.969 458.825 119.906C458.964 119.844 459.114 119.809 459.266 119.805C459.419 119.801 459.57 119.827 459.713 119.882Z" fill="black"/>
<path d="M465.985 102.798L451.7 136.613C451.485 137.122 451.724 137.709 452.233 137.925L497.005 156.837C497.514 157.052 498.101 156.814 498.316 156.305L512.601 122.489C512.816 121.98 512.577 121.393 512.068 121.178L467.296 102.265C466.787 102.05 466.2 102.289 465.985 102.798Z" fill="#007DAB"/>
<path d="M471.328 105.646L510.19 124.051L496.434 153.108L457.23 135.438L471.328 105.646Z" fill="#CDD2D4"/>
<path d="M469.631 105.873L508.494 124.278L494.737 153.335L455.521 135.665L469.631 105.873Z" fill="#EFEDED"/>
<path d="M468.111 106.557L507.543 123.721L494.711 153.197L459.016 138.452L457.128 131.777L468.111 106.557Z" fill="white"/>
<path d="M457.128 131.777L461.866 135.894L459.016 138.452L457.128 131.777Z" fill="#CDD2D4"/>
<path d="M457.128 131.777L461.055 135.197L459.016 138.452L457.128 131.777Z" fill="#E7EDF2"/>
<path d="M457.128 131.777L461.575 134.095L459.016 138.452L457.128 131.777Z" fill="#E7EDF2"/>
<path d="M458.015 126.432L460.928 127.698C461.167 127.785 461.431 127.778 461.665 127.68C461.9 127.581 462.089 127.398 462.195 127.166L466.578 116.805C466.667 116.564 466.66 116.298 466.558 116.063C466.457 115.827 466.269 115.639 466.033 115.538L463.12 114.271C462.88 114.185 462.617 114.191 462.382 114.29C462.148 114.389 461.959 114.572 461.853 114.803L461.257 116.209C461.145 116.483 460.941 116.709 460.679 116.848C460.418 116.987 460.116 117.03 459.826 116.969C459.365 116.799 458.856 116.812 458.404 117.005C457.951 117.198 457.59 117.557 457.394 118.008L456.672 119.731C456.481 120.186 456.474 120.696 456.651 121.157C456.828 121.617 457.176 121.991 457.622 122.201C457.869 122.366 458.049 122.613 458.132 122.897C458.216 123.182 458.197 123.487 458.078 123.759L457.483 125.165C457.396 125.404 457.403 125.668 457.501 125.902C457.6 126.137 457.783 126.326 458.015 126.432ZM458.433 120.694C458.293 120.635 458.166 120.55 458.06 120.443C457.953 120.335 457.87 120.208 457.813 120.067C457.756 119.927 457.728 119.777 457.73 119.626C457.732 119.474 457.764 119.325 457.825 119.186C457.913 118.976 458.063 118.797 458.253 118.671C458.444 118.546 458.668 118.48 458.896 118.481C459.124 118.483 459.347 118.553 459.535 118.681C459.724 118.81 459.87 118.991 459.956 119.203C460.041 119.415 460.062 119.647 460.015 119.87C459.968 120.094 459.856 120.298 459.693 120.458C459.53 120.618 459.323 120.725 459.099 120.767C458.874 120.809 458.643 120.783 458.433 120.694Z" fill="#CFDDDF"/>
<path d="M458.078 119.313C458.165 119.114 458.326 118.956 458.528 118.876C458.73 118.795 458.955 118.797 459.155 118.882C459.305 118.946 459.433 119.053 459.523 119.189C459.612 119.326 459.659 119.485 459.657 119.649C459.656 119.812 459.605 119.971 459.513 120.105C459.421 120.24 459.291 120.344 459.14 120.405C458.988 120.465 458.822 120.48 458.663 120.446C458.503 120.412 458.357 120.331 458.243 120.214C458.13 120.097 458.053 119.949 458.024 119.789C457.995 119.628 458.014 119.463 458.078 119.313Z" fill="#CFDDDF"/>
<path d="M460.576 127.533L465.737 115.316L463.251 114.266L458.091 126.483L460.576 127.533Z" fill="#CCCDCF"/>
<path d="M464.174 136.916L471.745 119.752C471.815 119.592 471.743 119.405 471.583 119.334L471.56 119.324C471.4 119.253 471.213 119.326 471.142 119.486L463.572 136.65C463.501 136.81 463.574 136.997 463.734 137.068L463.757 137.078C463.917 137.149 464.104 137.076 464.174 136.916Z" fill="#DBDCE1"/>
<path d="M465.43 137.465L473 120.3C473.071 120.14 472.998 119.954 472.838 119.883L472.815 119.873C472.655 119.802 472.468 119.875 472.397 120.035L464.827 137.199C464.757 137.359 464.829 137.546 464.989 137.617L465.012 137.627C465.172 137.697 465.359 137.625 465.43 137.465Z" fill="#DBDCE1"/>
<path d="M466.685 138.013L474.256 120.849C474.326 120.689 474.254 120.502 474.094 120.431L474.071 120.421C473.911 120.35 473.724 120.423 473.653 120.583L466.083 137.747C466.012 137.907 466.085 138.094 466.245 138.165L466.268 138.175C466.428 138.246 466.615 138.173 466.685 138.013Z" fill="#DBDCE1"/>
<path d="M467.911 138.568L475.482 121.404C475.552 121.244 475.48 121.057 475.32 120.986L475.296 120.976C475.136 120.906 474.949 120.978 474.879 121.138L467.309 138.303C467.238 138.463 467.31 138.65 467.47 138.72L467.494 138.73C467.654 138.801 467.841 138.728 467.911 138.568Z" fill="#DBDCE1"/>
<path d="M476.337 119.165L478.091 115.19L474.115 113.437L472.362 117.412L476.337 119.165Z" fill="#DBDCE1"/>
<path d="M471.113 117.919L476.61 116.133L477.155 115.968L476.889 115.512L475.812 113.65L475.521 113.752L475.99 115.867L476.256 115.234L470.999 117.628L471.113 117.919Z" fill="#00B200"/>
<path d="M471.645 140.203L479.215 123.038C479.286 122.878 479.213 122.691 479.053 122.621L479.03 122.611C478.87 122.54 478.683 122.612 478.612 122.772L471.042 139.937C470.971 140.097 471.044 140.284 471.204 140.354L471.227 140.365C471.387 140.435 471.574 140.363 471.645 140.203Z" fill="#DBDCE1"/>
<path d="M472.883 140.758L480.453 123.594C480.524 123.434 480.451 123.247 480.291 123.176L480.268 123.166C480.108 123.096 479.921 123.168 479.851 123.328L472.28 140.493C472.21 140.653 472.282 140.839 472.442 140.91L472.465 140.92C472.625 140.991 472.812 140.918 472.883 140.758Z" fill="#DBDCE1"/>
<path d="M474.138 141.307L481.709 124.142C481.779 123.982 481.707 123.795 481.547 123.725L481.523 123.715C481.363 123.644 481.177 123.716 481.106 123.876L473.536 141.041C473.465 141.201 473.538 141.388 473.698 141.458L473.721 141.469C473.881 141.539 474.068 141.467 474.138 141.307Z" fill="#DBDCE1"/>
<path d="M475.369 141.851L482.939 124.686C483.01 124.526 482.937 124.339 482.777 124.269L482.754 124.258C482.594 124.188 482.407 124.26 482.337 124.42L474.766 141.585C474.696 141.745 474.768 141.932 474.928 142.002L474.951 142.013C475.111 142.083 475.298 142.011 475.369 141.851Z" fill="#DBDCE1"/>
<path d="M483.791 122.459L485.544 118.483L481.569 116.73L479.815 120.705L483.791 122.459Z" fill="#DBDCE1"/>
<path d="M478.573 121.2L484.071 119.427L484.615 119.249L484.349 118.806L483.273 116.931L482.981 117.045L483.437 119.148L483.716 118.527L478.459 120.921L478.573 121.2Z" fill="#00B200"/>
<path d="M479.097 143.496L486.668 126.332C486.738 126.172 486.666 125.985 486.506 125.914L486.482 125.904C486.322 125.833 486.136 125.906 486.065 126.066L478.495 143.23C478.424 143.39 478.496 143.577 478.657 143.648L478.68 143.658C478.84 143.729 479.027 143.656 479.097 143.496Z" fill="#DBDCE1"/>
<path d="M480.337 144.051L487.907 126.886C487.978 126.726 487.905 126.539 487.745 126.469L487.722 126.459C487.562 126.388 487.375 126.461 487.305 126.621L479.734 143.785C479.664 143.945 479.736 144.132 479.896 144.203L479.919 144.213C480.079 144.283 480.266 144.211 480.337 144.051Z" fill="#DBDCE1"/>
<path d="M481.592 144.6L489.163 127.436C489.233 127.276 489.161 127.089 489.001 127.018L488.978 127.008C488.818 126.937 488.631 127.01 488.56 127.17L480.99 144.334C480.919 144.494 480.992 144.681 481.152 144.752L481.175 144.762C481.335 144.833 481.522 144.76 481.592 144.6Z" fill="#DBDCE1"/>
<path d="M482.848 145.149L490.418 127.985C490.489 127.825 490.416 127.638 490.256 127.567L490.233 127.557C490.073 127.486 489.886 127.559 489.816 127.719L482.245 144.883C482.175 145.043 482.247 145.23 482.407 145.301L482.43 145.311C482.59 145.381 482.777 145.309 482.848 145.149Z" fill="#DBDCE1"/>
<path d="M491.245 125.752L492.998 121.776L489.023 120.023L487.269 123.998L491.245 125.752Z" fill="#DBDCE1"/>
<path d="M486.022 124.493L491.532 122.72L492.077 122.543L491.811 122.087L490.721 120.225L490.443 120.339L490.899 122.441L491.177 121.808L485.921 124.215L486.022 124.493Z" fill="#00B200"/>
<path d="M486.552 146.789L494.122 129.625C494.193 129.465 494.12 129.278 493.96 129.207L493.937 129.197C493.777 129.126 493.59 129.199 493.52 129.359L485.949 146.523C485.879 146.683 485.951 146.87 486.111 146.941L486.134 146.951C486.294 147.022 486.481 146.949 486.552 146.789Z" fill="#DBDCE1"/>
<path d="M487.807 147.338L495.378 130.174C495.448 130.014 495.376 129.827 495.216 129.756L495.192 129.746C495.032 129.676 494.846 129.748 494.775 129.908L487.205 147.073C487.134 147.233 487.206 147.42 487.366 147.49L487.39 147.5C487.55 147.571 487.737 147.498 487.807 147.338Z" fill="#DBDCE1"/>
<path d="M489.045 147.893L496.616 130.729C496.686 130.569 496.614 130.382 496.454 130.311L496.431 130.301C496.271 130.23 496.084 130.303 496.013 130.463L488.443 147.627C488.372 147.787 488.445 147.974 488.605 148.045L488.628 148.055C488.788 148.126 488.975 148.053 489.045 147.893Z" fill="#DBDCE1"/>
<path d="M490.301 148.441L497.871 131.277C497.942 131.117 497.869 130.93 497.709 130.86L497.686 130.849C497.526 130.779 497.339 130.851 497.269 131.011L489.698 148.176C489.628 148.336 489.7 148.523 489.86 148.593L489.883 148.603C490.043 148.674 490.23 148.601 490.301 148.441Z" fill="#DBDCE1"/>
<path d="M498.697 129.032L500.451 125.057L496.475 123.303L494.722 127.279L498.697 129.032Z" fill="#DBDCE1"/>
<path d="M493.483 127.787L498.993 126.013L499.525 125.836L499.272 125.38L498.182 123.518L497.904 123.619L498.36 125.735L498.638 125.101L493.382 127.495L493.483 127.787Z" fill="#00B200"/>
<path d="M485.489 136.261C485.489 136.261 484.375 142.05 481.689 142.683C479.004 143.316 478.193 145.596 476.775 144.748C475.356 143.899 475.824 147.914 477.256 148.244C478.443 148.368 479.642 148.202 480.752 147.762L479.371 150.384C479.371 150.384 481.613 152.766 483.273 152.272C484.932 151.778 485.578 153.868 488.643 152.829C491.709 151.79 494.762 150.6 495.737 148.826C496.712 147.053 496.484 136.653 494.546 134.576C492.608 132.499 492.342 127.331 492.342 127.331L484.995 128.863L485.489 136.261Z" fill="#FFA86D"/>
<path d="M468.44 79.6397C468.44 79.6397 478.573 107.786 480.79 123.366L482.994 138.946C482.994 138.946 493.317 138.3 496.801 135.222C496.801 135.222 482.247 55.4206 456.989 57.2699L468.44 79.6397Z" fill="#E55480"/>
<path opacity="0.1" d="M283.541 314.383C311.117 312.737 327.875 313.813 335.539 320.983C343.202 328.152 317.4 332.586 306.633 329.672C295.866 326.759 300.983 332.966 286.049 339.515C271.115 346.063 229.567 326.189 241.246 321.262C252.925 316.334 272.546 315.042 283.541 314.383Z" fill="#00052A"/>
<path d="M328.268 96.4489C327.078 95.6509 308.381 82.8066 303.517 78.5252C307.647 77.7019 312.384 71.7991 313.651 69.6584L328.965 81.8693C328.965 81.8693 331.967 75.7765 358.289 57.2828C359.095 56.5925 359.681 55.6808 359.974 54.6607C360.734 52.634 361.975 49.4546 362.57 48.3273L365.927 41.9052C365.927 41.9052 368.79 42.1205 366.751 45.7052C365.801 47.3899 365.573 48.4286 366.257 48.872C367.207 49.5053 375.807 39.5998 376.542 40.1825C378.201 41.4492 372.172 48.378 372.172 48.378C372.172 48.378 380.228 41.0311 382.014 40.9551C383.8 40.8791 374.921 50.3413 374.921 50.3413C374.921 50.3413 384.421 44.1852 385.194 44.9452C385.966 45.7052 377.251 52.6847 377.251 52.6847C377.251 52.6847 382.154 49.2013 383.091 50.5313C383.636 51.304 373.16 58.2708 369.233 60.3355C367.184 61.353 365.068 62.2291 362.9 62.9576C357.833 66.327 338.199 94.4222 331.106 96.5376C330.683 96.8218 330.182 96.9661 329.673 96.9502C329.164 96.9343 328.673 96.7589 328.268 96.4489Z" fill="#FFA86D"/>
<path d="M304.1 82.6668C304.1 82.6668 279.703 63.2738 278.133 54.6983C277.322 50.2902 284.757 43.374 295.613 47.2121C303.606 50.0368 328.902 79.6647 328.902 79.6647C328.902 79.6647 346.635 60.8671 354.995 57.8397L360.67 66.4152C360.67 66.4152 335.412 99.5138 329.155 99.0198C322.898 98.5258 304.1 82.6668 304.1 82.6668Z" fill="#007A68"/>
<path d="M294.004 291.038V305.592C294.004 309.468 292.889 314.737 292.256 319.133C296.74 321.945 301.933 327.873 304.808 328.886C305.661 329.219 306.583 329.331 307.491 329.214C308.398 329.097 309.262 328.753 310.002 328.215C308.558 326.948 307.215 325.682 305.341 324.022C303.554 322.673 302.012 321.027 300.78 319.158C299.628 317.005 300.16 314.091 300.996 309.316C301.832 304.541 302.997 298.169 304.213 291.038H294.004Z" fill="#FFB87B"/>
<path d="M315.031 332.915C314.41 334.676 312.117 335.816 307.988 333.853C305.163 332.51 300.844 328.887 297.082 328.368C294.624 328.026 293.18 327.95 292.42 326.709C291.66 325.467 291.787 322.503 292.256 319.108C296.74 321.92 301.933 327.849 304.809 328.862C305.661 329.194 306.584 329.307 307.491 329.19C308.399 329.072 309.262 328.729 310.002 328.191L310.737 328.862C313.612 331.395 315.436 331.801 315.031 332.915Z" fill="#030C36"/>
<path d="M260.411 294.901V309.493C260.411 313.369 259.297 318.626 258.676 323.034C263.147 325.846 268.341 331.774 271.216 332.775C272.068 333.109 272.99 333.224 273.897 333.109C274.805 332.994 275.669 332.652 276.41 332.116C274.966 330.85 273.623 329.583 271.748 327.911C269.96 326.564 268.417 324.918 267.188 323.047C266.036 320.906 266.567 317.98 267.404 313.217C268.24 308.454 269.405 302.07 270.621 294.939L260.411 294.901Z" fill="#FFB87B"/>
<path d="M281.426 336.766C280.805 338.539 278.513 339.679 274.383 337.703C271.559 336.361 267.239 332.751 263.477 332.219C261.032 331.877 259.576 331.801 258.816 330.572C258.056 329.343 258.182 326.354 258.664 322.972C263.135 325.784 268.329 331.712 271.204 332.713C272.056 333.047 272.977 333.161 273.885 333.046C274.792 332.931 275.656 332.59 276.397 332.054L277.132 332.713C279.957 335.259 281.832 335.664 281.426 336.766Z" fill="#030C36"/>
<path d="M261.197 319.703C261.197 319.703 260.323 321.781 261.197 322.997" stroke="#00052A" stroke-linecap="round" stroke-linejoin="round"/>
<path d="M303.162 148.434H289.355V213.035C290.277 216.363 290.98 219.748 291.458 223.168C291.458 228.451 289.355 309.721 289.355 309.721C289.355 309.721 297.462 315.586 305.556 309.721C305.556 309.721 313.663 232.846 313.663 215.834C313.663 198.823 303.162 148.434 303.162 148.434Z" fill="#965600"/>
<path d="M289.355 159.34C289.355 159.34 298.488 210.007 298.842 221.192C299.197 232.377 293.484 311.216 293.484 311.216" stroke="#ECEEF7" stroke-miterlimit="10"/>
<path d="M272.09 148.434H254.838C254.838 148.434 259.905 203.598 262.337 222.079C264.769 240.56 254.838 313.623 254.838 313.623C254.838 313.623 264.971 318.905 272.85 313.623C272.85 313.623 289.317 228.831 289.317 219.14V148.434H272.09Z" fill="#A96600"/>
<path d="M263.894 148.434C263.894 148.434 270.063 216.151 269.861 234.404C269.658 252.657 260.804 314.94 260.804 314.94" stroke="#ECEEF7" stroke-miterlimit="10"/>
<path d="M309.813 80.653C309.79 80.1337 309.705 79.6191 309.559 79.1203C307.761 73.1795 296.082 47.2123 296.082 47.2123C288.696 44.6604 280.793 43.9771 273.079 45.2236C273.079 45.2236 258.005 48.0863 253.724 56.2311C252.848 58.4698 252.418 60.8578 252.457 63.2613C251.76 77.7649 256.472 106.81 256.472 117.843C256.472 131.27 252.381 146.23 252.381 155.033C252.381 155.033 281.236 164.723 306.456 155.033C306.456 155.033 304.873 105.075 306.785 97.88C307.672 94.5359 308.483 91.2552 309.04 88.3544C309.602 85.8271 309.862 83.2417 309.813 80.653Z" fill="#007A68"/>
<path d="M303.352 9.79415C300.034 3.68869 294.929 5.76607 294.929 5.76607C290.09 -3.26544 267.315 -2.87277 265.947 15.5956C265.339 23.6518 268.341 31.5432 262.717 36.078C258.854 39.1814 247.517 49.0742 250.671 59.5878C251.627 58.4188 252.642 57.2985 253.711 56.2311C257.992 48.0862 273.066 45.2235 273.066 45.2235L278.247 30.9226C278.247 30.9226 272.47 32.2906 271.913 27.4012C271.432 22.9297 275.967 22.7777 275.967 22.7777C275.967 22.7777 294.435 27.2492 295.03 13.4676L296.132 13.3789L299.388 21.131C300.03 20.6483 300.639 20.1235 301.212 19.5603C303.378 17.4576 305.265 13.3155 303.352 9.79415Z" fill="#00052A"/>
<path d="M294.801 315.827C294.801 315.827 293.927 317.917 294.801 319.121" stroke="#00052A" stroke-linecap="round" stroke-linejoin="round"/>
<path d="M296.157 13.3792C295.979 13.1639 295.549 12.9739 295.055 13.4679C285.023 23.3734 275.991 22.7781 275.991 22.7781C275.991 22.7781 271.456 22.9301 271.938 27.4015C272.47 32.291 278.271 30.9229 278.271 30.9229L273.078 45.2239C273.078 45.2239 283.211 57.8908 291.812 59.5882C292.268 59.6768 293.788 53.1534 293.079 45.8825L293.155 39.2197C293.155 39.2197 305.505 37.2564 302.984 17.1413C300.223 17.1413 297.398 14.8613 296.157 13.3792Z" fill="#FFB87B"/>
<path d="M275.941 24.4878C275.941 24.4878 273.965 26.5778 277.119 27.7939C277.119 27.7939 275.434 27.1858 274.927 28.4019" stroke="#00052A" stroke-linecap="round" stroke-linejoin="round"/>
<path d="M293.181 39.2194C291.282 39.3146 289.391 38.9082 287.699 38.041C286.007 37.1738 284.573 35.8764 283.541 34.2793C283.541 34.2793 282.072 43.5008 293.118 43.6781L293.181 39.2194Z" fill="#F49D6E"/>
<path d="M306.924 111.788L366.421 119.692L366.965 115.778L307.469 107.874L306.924 111.788Z" fill="#2D7CEB"/>
<path d="M307.47 107.874L366.966 115.778L392.478 79.0697L332.981 71.1655L307.47 107.874Z" fill="#2D7CEB"/>
<path d="M307.469 107.874L305.265 107.57L330.777 70.874L332.981 71.1654L307.469 107.874Z" fill="#00052A"/>
<path d="M277.183 107.836L306.925 111.788L307.469 107.874L277.449 105.873L277.183 107.836Z" fill="#00052A"/>
<path d="M345.28 94.9537C345.189 95.6455 345.237 96.3484 345.421 97.0216C345.604 97.6947 345.92 98.3247 346.349 98.875C346.778 99.4254 347.312 99.885 347.92 100.227C348.528 100.57 349.197 100.788 349.89 100.869C351.289 101.069 352.709 100.709 353.843 99.8664C354.977 99.0243 355.732 97.7686 355.945 96.3724C356.036 95.6798 355.988 94.9762 355.804 94.3022C355.621 93.6283 355.306 92.9974 354.877 92.4461C354.448 91.8948 353.914 91.434 353.306 91.0904C352.698 90.7468 352.028 90.5271 351.334 90.4442C349.934 90.2447 348.512 90.6068 347.378 91.4515C346.244 92.2962 345.49 93.5551 345.28 94.9537Z" fill="#F3F3F3"/>
<path d="M252.317 117.64C252.127 116.234 249.163 94.0926 249.125 87.6831C252.532 90.1152 260.209 89.5705 262.717 88.9498L263.844 108.242C263.844 108.242 270.545 106.303 302.212 112.776C303.279 112.893 304.356 112.7 305.315 112.219C307.367 111.396 310.598 110.142 311.877 109.787L318.983 107.862C318.983 107.862 320.769 110.078 316.665 111.054C314.752 111.51 313.815 112.042 313.929 112.827C314.094 113.954 327.381 113.448 327.432 114.372C327.571 116.45 318.299 116.766 318.299 116.766C318.299 116.766 329.231 117.64 330.497 118.856C331.764 120.072 318.628 120.123 318.628 120.123C318.628 120.123 329.687 122.808 329.636 123.923C329.585 125.038 318.438 123.442 318.438 123.442C318.438 123.442 324.367 124.62 323.999 126.191C323.784 127.103 311.459 124.265 307.241 122.834C305.068 122.031 302.952 121.083 300.907 119.996C294.916 118.59 260.5 123.467 254.103 119.794C253.615 119.671 253.179 119.396 252.858 119.009C252.537 118.622 252.348 118.142 252.317 117.64Z" fill="#FFA86D"/>
<path d="M246.39 90.9132C246.39 90.9132 245.642 63.2866 249.265 55.3191C253.724 45.5276 262.933 47.0603 267.379 57.4852C270.647 65.0853 265.415 106.747 265.415 106.747C265.415 106.747 291.598 106.861 299.502 110.8L296.867 120.756C296.867 120.756 254.839 124.911 250.988 120.072C247.137 115.234 246.39 90.9132 246.39 90.9132Z" fill="#007A68"/>
<path d="M295.473 30.4039C295.836 30.3812 296.188 30.2743 296.503 30.0919C296.817 29.9094 297.085 29.6563 297.284 29.3526C298.057 27.8452 296.626 26.5785 295.473 25.5525C295.207 25.3118 294.941 25.0838 294.7 24.8432C293.839 23.9818 294.371 22.3098 294.84 20.8531C294.916 20.6504 294.979 20.4477 295.03 20.2577C295.051 20.1896 295.058 20.1178 295.051 20.0467C295.044 19.9757 295.023 19.9068 294.989 19.8441C294.954 19.7815 294.908 19.7264 294.852 19.6821C294.796 19.6378 294.731 19.6053 294.662 19.5864C294.525 19.547 294.377 19.5635 294.251 19.6323C294.126 19.701 294.032 19.8165 293.991 19.9537C293.991 20.1437 293.877 20.3337 293.814 20.5364C293.282 22.1958 292.61 24.3365 293.928 25.6032L294.751 26.3505C295.942 27.4019 296.689 28.1619 296.309 28.8839C295.929 29.6059 294.548 29.4919 293.649 29.3652C293.579 29.3526 293.507 29.3541 293.438 29.3696C293.369 29.3852 293.303 29.4145 293.245 29.4558C293.187 29.4972 293.138 29.5497 293.101 29.6103C293.064 29.6709 293.039 29.7383 293.028 29.8086C293.016 29.8781 293.018 29.9494 293.034 30.018C293.051 30.0867 293.082 30.1511 293.125 30.2071C293.168 30.2632 293.222 30.3097 293.284 30.3435C293.346 30.3774 293.414 30.398 293.484 30.4039C294.144 30.4958 294.813 30.4958 295.473 30.4039Z" fill="#00052A"/>
<path d="M287.164 23.7029C287.203 24.1188 287.404 24.5026 287.724 24.7707C288.045 25.0388 288.458 25.1695 288.874 25.1343C289.175 25.1013 289.46 24.9805 289.693 24.787C289.926 24.5935 290.097 24.3357 290.185 24.0458C290.273 23.7559 290.273 23.4465 290.187 23.1562C290.1 22.8659 289.93 22.6075 289.698 22.4131C289.466 22.2186 289.181 22.0968 288.88 22.0626C288.579 22.0284 288.275 22.0835 288.005 22.2209C287.735 22.3583 287.511 22.5721 287.362 22.8356C287.212 23.0991 287.144 23.4007 287.164 23.7029Z" fill="#002441"/>
<path d="M296.918 23.4238C296.897 23.6286 296.916 23.8355 296.976 24.0325C297.035 24.2296 297.133 24.4129 297.264 24.5719C297.395 24.7309 297.556 24.8625 297.738 24.9589C297.919 25.0553 298.119 25.1148 298.324 25.1338C298.738 25.1803 299.154 25.0613 299.481 24.8028C299.809 24.5443 300.021 24.1671 300.072 23.7531C300.093 23.5483 300.073 23.3414 300.013 23.1443C299.954 22.9473 299.856 22.7639 299.725 22.6049C299.594 22.4459 299.433 22.3144 299.252 22.218C299.07 22.1215 298.871 22.0621 298.666 22.0431C298.251 21.9966 297.835 22.1155 297.508 22.374C297.18 22.6326 296.968 23.0098 296.918 23.4238Z" fill="#002441"/>
<path d="M290.141 31.0869C290.964 31.9206 291.978 32.5417 293.094 32.897C294.211 33.2522 295.397 33.3309 296.551 33.1263C296.173 33.8143 295.577 34.3571 294.857 34.669C294.137 34.9809 293.333 35.0442 292.573 34.849C289.09 33.899 290.141 31.0869 290.141 31.0869Z" fill="white"/>
<path d="M292.319 18.1541C291.805 17.6599 291.15 17.3369 290.445 17.2294C289.751 17.0902 289.036 17.0902 288.342 17.2294C287.644 17.361 286.985 17.6514 286.417 18.0781C285.863 18.4855 285.426 19.0316 285.15 19.6615C285.136 19.6946 285.128 19.7303 285.128 19.7664C285.128 19.8025 285.135 19.8383 285.15 19.8714C285.164 19.9046 285.185 19.9346 285.211 19.9594C285.237 19.9843 285.268 20.0036 285.302 20.0161C285.341 20.0352 285.385 20.0451 285.429 20.0451C285.472 20.0451 285.516 20.0352 285.555 20.0161C286.054 19.6968 286.57 19.4051 287.101 19.1421C288.105 18.6428 289.209 18.3745 290.331 18.3568C290.901 18.3478 291.47 18.429 292.015 18.5974C292.084 18.6146 292.157 18.606 292.22 18.5734C292.283 18.5407 292.332 18.4862 292.357 18.4201C292.373 18.376 292.377 18.3288 292.371 18.2825C292.364 18.2362 292.347 18.1921 292.319 18.1541Z" fill="#00052A"/>
<path d="M301.44 19.7632C301.342 19.3496 301.111 18.98 300.781 18.7118C300.463 18.441 300.085 18.2499 299.679 18.1545C299.262 18.0644 298.83 18.0644 298.412 18.1545C298.226 18.2088 298.044 18.2765 297.868 18.3572C297.694 18.4435 297.529 18.5452 297.374 18.6612C297.322 18.7134 297.293 18.7839 297.293 18.8575C297.293 18.9311 297.322 19.0016 297.374 19.0538C297.398 19.0846 297.429 19.1096 297.464 19.1272C297.499 19.1447 297.537 19.1542 297.576 19.1552C297.749 19.1742 297.923 19.1742 298.096 19.1552H298.577C298.866 19.1536 299.154 19.1791 299.438 19.2312C299.705 19.27 299.966 19.3468 300.211 19.4592C300.479 19.5756 300.734 19.72 300.971 19.8899H301.034C301.086 19.9379 301.154 19.9647 301.224 19.9647C301.295 19.9647 301.363 19.9379 301.414 19.8899C301.433 19.8504 301.442 19.8068 301.44 19.7632Z" fill="#00052A"/>
<g style="mix-blend-mode:multiply">
<path d="M299.857 27.883C299.857 27.883 299.16 26.1223 298.121 26.7176C296.855 27.4397 299.755 30.3024 299.755 30.3024C299.755 30.3024 302.884 27.9843 301.744 27.047C300.604 26.1096 299.857 27.883 299.857 27.883Z" fill="#FF7796"/>
</g>
<g style="mix-blend-mode:multiply">
<path d="M288.278 27.5408C288.278 27.5408 287.214 25.1721 285.833 26.0461C284.199 27.0975 288.278 30.8216 288.278 30.8216C288.278 30.8216 292.42 27.4775 290.811 26.2615C289.203 25.0454 288.278 27.5408 288.278 27.5408Z" fill="#FF7796"/>
</g>
<defs>
<linearGradient id="paint0_linear_124_45" x1="367.308" y1="342.389" x2="367.308" y2="54.2929" gradientUnits="userSpaceOnUse">
<stop stop-color="#FF7F08"/>
<stop offset="1" stop-color="#FF7F08" stop-opacity="0.2"/>
</linearGradient>
<linearGradient id="paint1_linear_124_45" x1="661.547" y1="124.025" x2="724.033" y2="312.331" gradientUnits="userSpaceOnUse">
<stop stop-color="#39C4E2" stop-opacity="0.97"/>
<stop offset="1" stop-color="#007A68"/>
</linearGradient>
<linearGradient id="paint2_linear_124_45" x1="648.74" y1="128.281" x2="711.214" y2="316.587" gradientUnits="userSpaceOnUse">
<stop stop-color="#39C4E2" stop-opacity="0.97"/>
<stop offset="1" stop-color="#007A68"/>
</linearGradient>
<linearGradient id="paint3_linear_124_45" x1="660.825" y1="124.266" x2="723.298" y2="312.572" gradientUnits="userSpaceOnUse">
<stop stop-color="#39C4E2" stop-opacity="0.97"/>
<stop offset="1" stop-color="#007A68"/>
</linearGradient>
<linearGradient id="paint4_linear_124_45" x1="654.301" y1="126.431" x2="716.787" y2="314.738" gradientUnits="userSpaceOnUse">
<stop stop-color="#39C4E2" stop-opacity="0.97"/>
<stop offset="1" stop-color="#007A68"/>
</linearGradient>
<linearGradient id="paint5_linear_124_45" x1="647.753" y1="128.61" x2="710.239" y2="316.917" gradientUnits="userSpaceOnUse">
<stop stop-color="#39C4E2" stop-opacity="0.97"/>
<stop offset="1" stop-color="#007A68"/>
</linearGradient>
<linearGradient id="paint6_linear_124_45" x1="637.936" y1="131.866" x2="700.422" y2="320.172" gradientUnits="userSpaceOnUse">
<stop stop-color="#39C4E2" stop-opacity="0.97"/>
<stop offset="1" stop-color="#007A68"/>
</linearGradient>
<linearGradient id="paint7_linear_124_45" x1="641.571" y1="130.662" x2="704.045" y2="318.968" gradientUnits="userSpaceOnUse">
<stop stop-color="#39C4E2" stop-opacity="0.97"/>
<stop offset="1" stop-color="#007A68"/>
</linearGradient>
<linearGradient id="paint8_linear_124_45" x1="631.298" y1="134.07" x2="693.784" y2="322.376" gradientUnits="userSpaceOnUse">
<stop stop-color="#39C4E2" stop-opacity="0.97"/>
<stop offset="1" stop-color="#007A68"/>
</linearGradient>
<linearGradient id="paint9_linear_124_45" x1="621.532" y1="137.312" x2="684.005" y2="325.618" gradientUnits="userSpaceOnUse">
<stop stop-color="#39C4E2" stop-opacity="0.97"/>
<stop offset="1" stop-color="#007A68"/>
</linearGradient>
<linearGradient id="paint10_linear_124_45" x1="628.005" y1="135.159" x2="690.478" y2="323.466" gradientUnits="userSpaceOnUse">
<stop stop-color="#39C4E2" stop-opacity="0.97"/>
<stop offset="1" stop-color="#007A68"/>
</linearGradient>
<linearGradient id="paint11_linear_124_45" x1="609.676" y1="141.239" x2="672.15" y2="329.546" gradientUnits="userSpaceOnUse">
<stop stop-color="#39C4E2" stop-opacity="0.97"/>
<stop offset="1" stop-color="#007A68"/>
</linearGradient>
<linearGradient id="paint12_linear_124_45" x1="627.309" y1="135.387" x2="689.782" y2="323.693" gradientUnits="userSpaceOnUse">
<stop stop-color="#39C4E2" stop-opacity="0.97"/>
<stop offset="1" stop-color="#007A68"/>
</linearGradient>
<linearGradient id="paint13_linear_124_45" x1="671.857" y1="136.97" x2="609.384" y2="325.277" gradientUnits="userSpaceOnUse">
<stop stop-color="#E6A224"/>
<stop offset="0.35" stop-color="#E68349"/>
<stop offset="0.78" stop-color="#E56171"/>
<stop offset="1" stop-color="#E55480"/>
</linearGradient>
<linearGradient id="paint14_linear_124_45" x1="-5.7841" y1="182.52" x2="50.6217" y2="365.621" gradientUnits="userSpaceOnUse">
<stop stop-color="#E6A224"/>
<stop offset="0.35" stop-color="#E68349"/>
<stop offset="0.78" stop-color="#E56171"/>
<stop offset="1" stop-color="#E55480"/>
</linearGradient>
<linearGradient id="paint15_linear_124_45" x1="-0.628248" y1="180.937" x2="55.7776" y2="364.037" gradientUnits="userSpaceOnUse">
<stop stop-color="#E6A224"/>
<stop offset="0.35" stop-color="#E68349"/>
<stop offset="0.78" stop-color="#E56171"/>
<stop offset="1" stop-color="#E55480"/>
</linearGradient>
<linearGradient id="paint16_linear_124_45" x1="-14.3847" y1="185.18" x2="42.0213" y2="368.281" gradientUnits="userSpaceOnUse">
<stop stop-color="#E6A224"/>
<stop offset="0.35" stop-color="#E68349"/>
<stop offset="0.78" stop-color="#E56171"/>
<stop offset="1" stop-color="#E55480"/>
</linearGradient>
<linearGradient id="paint17_linear_124_45" x1="-16.4366" y1="185.801" x2="39.9692" y2="368.901" gradientUnits="userSpaceOnUse">
<stop stop-color="#E6A224"/>
<stop offset="0.35" stop-color="#E68349"/>
<stop offset="0.78" stop-color="#E56171"/>
<stop offset="1" stop-color="#E55480"/>
</linearGradient>
<linearGradient id="paint18_linear_124_45" x1="-18.3625" y1="186.396" x2="38.0433" y2="369.497" gradientUnits="userSpaceOnUse">
<stop stop-color="#E6A224"/>
<stop offset="0.35" stop-color="#E68349"/>
<stop offset="0.78" stop-color="#E56171"/>
<stop offset="1" stop-color="#E55480"/>
</linearGradient>
<linearGradient id="paint19_linear_124_45" x1="-17.0577" y1="186.004" x2="39.3481" y2="369.091" gradientUnits="userSpaceOnUse">
<stop stop-color="#E6A224"/>
<stop offset="0.35" stop-color="#E68349"/>
<stop offset="0.78" stop-color="#E56171"/>
<stop offset="1" stop-color="#E55480"/>
</linearGradient>
<linearGradient id="paint20_linear_124_45" x1="-0.843604" y1="181" x2="55.5621" y2="364.1" gradientUnits="userSpaceOnUse">
<stop stop-color="#E6A224"/>
<stop offset="0.35" stop-color="#E68349"/>
<stop offset="0.78" stop-color="#E56171"/>
<stop offset="1" stop-color="#E55480"/>
</linearGradient>
<linearGradient id="paint21_linear_124_45" x1="2.38619" y1="180.012" x2="58.7921" y2="363.113" gradientUnits="userSpaceOnUse">
<stop stop-color="#E6A224"/>
<stop offset="0.35" stop-color="#E68349"/>
<stop offset="0.78" stop-color="#E56171"/>
<stop offset="1" stop-color="#E55480"/>
</linearGradient>
<linearGradient id="paint22_linear_124_45" x1="3.00698" y1="179.809" x2="59.4128" y2="362.91" gradientUnits="userSpaceOnUse">
<stop stop-color="#E6A224"/>
<stop offset="0.35" stop-color="#E68349"/>
<stop offset="0.78" stop-color="#E56171"/>
<stop offset="1" stop-color="#E55480"/>
</linearGradient>
<linearGradient id="paint23_linear_124_45" x1="-15.1316" y1="185.408" x2="41.2742" y2="368.509" gradientUnits="userSpaceOnUse">
<stop stop-color="#E6A224"/>
<stop offset="0.35" stop-color="#E68349"/>
<stop offset="0.78" stop-color="#E56171"/>
<stop offset="1" stop-color="#E55480"/>
</linearGradient>
<linearGradient id="paint24_linear_124_45" x1="7.28832" y1="178.505" x2="63.6941" y2="361.593" gradientUnits="userSpaceOnUse">
<stop stop-color="#E6A224"/>
<stop offset="0.35" stop-color="#E68349"/>
<stop offset="0.78" stop-color="#E56171"/>
<stop offset="1" stop-color="#E55480"/>
</linearGradient>
<linearGradient id="paint25_linear_124_45" x1="-2.13568" y1="181.406" x2="54.2701" y2="364.506" gradientUnits="userSpaceOnUse">
<stop stop-color="#E6A224"/>
<stop offset="0.35" stop-color="#E68349"/>
<stop offset="0.78" stop-color="#E56171"/>
<stop offset="1" stop-color="#E55480"/>
</linearGradient>
<linearGradient id="paint26_linear_124_45" x1="38.9051" y1="171.627" x2="95.3108" y2="354.727" gradientUnits="userSpaceOnUse">
<stop stop-color="#39C4E2" stop-opacity="0.97"/>
<stop offset="1" stop-color="#007A68"/>
</linearGradient>
<linearGradient id="paint27_linear_124_45" x1="14.9516" y1="178.999" x2="71.3575" y2="362.1" gradientUnits="userSpaceOnUse">
<stop stop-color="#39C4E2" stop-opacity="0.97"/>
<stop offset="1" stop-color="#007A68"/>
</linearGradient>
<linearGradient id="paint28_linear_124_45" x1="55.283" y1="166.585" x2="111.689" y2="349.685" gradientUnits="userSpaceOnUse">
<stop stop-color="#39C4E2" stop-opacity="0.97"/>
<stop offset="1" stop-color="#007A68"/>
</linearGradient>
</defs>
</svg>
