<svg width="11" height="19" viewBox="0 0 11 19" fill="none" xmlns="http://www.w3.org/2000/svg">
<path d="M0.416688 10.3705L8.52883 18.4181C8.76544 18.6518 9.08509 18.7821 9.41764 18.7804C9.7502 18.7787 10.0685 18.6452 10.3027 18.4091C10.537 18.1731 10.668 17.8537 10.6671 17.5212C10.6662 17.1886 10.5334 16.87 10.2979 16.6352L3.07657 9.47204L10.2397 2.25319C10.3621 2.13764 10.46 1.99867 10.5276 1.84454C10.5952 1.69041 10.6312 1.52426 10.6333 1.35596C10.6354 1.18767 10.6037 1.02066 10.54 0.864866C10.4763 0.709072 10.382 0.567673 10.2626 0.449066C10.1431 0.330458 10.0011 0.237067 9.84487 0.17444C9.68865 0.111811 9.52143 0.081227 9.35316 0.0845007C9.18488 0.0877744 9.01898 0.124839 8.86531 0.193497C8.71164 0.262154 8.57334 0.360999 8.45862 0.484162L0.409729 8.59266C0.293301 8.70977 0.20111 8.84868 0.138436 9.00146C0.075762 9.15424 0.0438343 9.31787 0.0444807 9.48301C0.0451271 9.64814 0.0783349 9.81152 0.142203 9.9638C0.206071 10.1161 0.299347 10.2543 0.416688 10.3705Z" fill="#096DFA"/>
</svg>
