<svg width="34" height="23" viewBox="0 0 34 23" fill="none" xmlns="http://www.w3.org/2000/svg">
<path d="M1.10114 12.3434L11.2162 22.3795C11.4529 22.6142 11.7731 22.7452 12.1063 22.7438C12.4396 22.7424 12.7587 22.6086 12.9934 22.372C13.228 22.1353 13.3591 21.8151 13.3577 21.4818C13.3562 21.1485 13.2225 20.8294 12.9858 20.5948L8.81122 16.4527L28.1734 16.377C28.3731 16.3762 28.5644 16.2961 28.7051 16.1542C28.8458 16.0124 28.9244 15.8205 28.9237 15.6208C28.9229 15.421 28.8428 15.2297 28.701 15.089C28.5591 14.9483 28.3672 14.8697 28.1675 14.8705L7.29823 14.9522L5.02539 12.6964L32.1828 12.5901C32.5158 12.5888 32.8347 12.4553 33.0693 12.2188C33.3039 11.9824 33.435 11.6625 33.4337 11.3294C33.4324 10.9963 33.2988 10.6774 33.0624 10.4429C32.8259 10.2083 32.506 10.0772 32.1729 10.0785L5.01556 10.1848L7.27067 7.91198L28.1417 7.83028C28.3379 7.82395 28.5238 7.74138 28.66 7.60014C28.7962 7.45889 28.872 7.2701 28.8712 7.07387C28.8705 6.87764 28.7932 6.68944 28.6559 6.54927C28.5186 6.4091 28.332 6.32799 28.1358 6.32319L8.77368 6.39898L12.9157 2.225C13.0319 2.10777 13.1239 1.96881 13.1864 1.81604C13.2489 1.66327 13.2806 1.49968 13.2799 1.33463C13.2792 1.16957 13.246 1.00628 13.1821 0.854068C13.1183 0.701857 13.0251 0.563707 12.9078 0.447512C12.7906 0.331318 12.6517 0.239349 12.4989 0.176861C12.3461 0.114371 12.1825 0.0825865 12.0175 0.0833165C11.8524 0.0840465 11.6891 0.117281 11.5369 0.181119C11.3847 0.244957 11.2466 0.338154 11.1304 0.455381L1.09418 10.5656C0.97775 10.6827 0.885558 10.8216 0.822885 10.9744C0.760208 11.1271 0.728282 11.2908 0.728929 11.4559C0.729575 11.621 0.762781 11.7844 0.826652 11.9367C0.890519 12.089 0.983796 12.2272 1.10114 12.3434Z" fill="#203640"/>
</svg>
