<svg width="11" height="19" viewBox="0 0 11 19" fill="none" xmlns="http://www.w3.org/2000/svg">
<path d="M0.416725 10.3705L8.52886 18.4181C8.76548 18.6518 9.08512 18.7821 9.41768 18.7804C9.75023 18.7787 10.0685 18.6452 10.3028 18.4091C10.537 18.1731 10.668 17.8537 10.6671 17.5212C10.6662 17.1886 10.5334 16.87 10.2979 16.6352L3.07661 9.47204L10.2398 2.25319C10.3621 2.13764 10.4601 1.99867 10.5277 1.84454C10.5953 1.69041 10.6312 1.52426 10.6333 1.35596C10.6355 1.18767 10.6037 1.02066 10.5401 0.864866C10.4764 0.709072 10.382 0.567673 10.2626 0.449066C10.1432 0.330458 10.0011 0.237067 9.84491 0.17444C9.68869 0.111811 9.52147 0.081227 9.35319 0.0845007C9.18492 0.0877744 9.01901 0.124839 8.86535 0.193497C8.71168 0.262154 8.57337 0.360999 8.45866 0.484162L0.409766 8.59266C0.293338 8.70977 0.201147 8.84868 0.138473 9.00146C0.0757992 9.15424 0.0438715 9.31787 0.0445179 9.48301C0.0451643 9.64814 0.0783721 9.81152 0.14224 9.9638C0.206108 10.1161 0.299384 10.2543 0.416725 10.3705Z" fill="#096DFA"/>
</svg>
